<svg id="Capa_1" enable-background="new 0 0 511.5 511.5" height="512" viewBox="0 0 511.5 511.5" width="512" xmlns="http://www.w3.org/2000/svg" xmlns:xlink="http://www.w3.org/1999/xlink"><linearGradient id="lg1"><stop offset=".00000083866" stop-color="#96d1f3"/><stop offset="1" stop-color="#ccfff4"/></linearGradient><linearGradient id="SVGID_1_" gradientUnits="userSpaceOnUse" x1="366.339" x2="366.339" xlink:href="#lg1" y1="307.056" y2="511.5"/><linearGradient id="SVGID_2_" gradientUnits="userSpaceOnUse" x1="145.161" x2="145.161" xlink:href="#lg1" y1="307.056" y2="511.5"/><linearGradient id="SVGID_3_" gradientUnits="userSpaceOnUse" x1="255.75" x2="255.75" y1="0" y2="511.5"><stop offset=".00000011981" stop-color="#174fa3"/><stop offset="1" stop-color="#b044af"/></linearGradient><g id="Filled_25_"><path d="m349.75 227.5 31-59-28-161h-38l-12 50 17 9-10 18 12 15-17 10 1 17-20 1-16.41 46.335c-4.398-.869-8.94-1.335-13.59-1.335s-9.191.466-13.59 1.335l-16.41-46.335-20-1 1-17-17-10 12-15-10-18 17-9-12-50h-38l-28 161 31 59 24 15-29 80 53 22 13.933-39.809c9.615 4.978 20.513 7.809 32.067 7.809s22.452-2.831 32.067-7.809l13.933 39.809 53-22-29-80z" fill="#fff"/><circle cx="255.75" cy="242.5" fill="#fff" r="30"/><path d="m352.75 511.5c0-3.947-.907-7.842-2.651-11.383-20.217-41.046-38.108-83.197-53.588-126.252l-2.399-6.673c-3.575-9.943 1.201-20.951 10.904-25.133l76.996-33.188c11.761-5.069 25.355.876 29.618 12.953 2.561 7.255 1.168 15.319-3.677 21.295-13.707 16.905-17.192 39.904-9.109 60.111l38.68 96.699c1.472 3.68 2.228 7.607 2.228 11.571z" fill="url(#SVGID_1_)"/><path d="m158.75 511.5c0-3.947.907-7.842 2.651-11.383 20.217-41.046 38.108-83.197 53.588-126.252l2.399-6.673c3.575-9.943-1.201-20.951-10.904-25.133l-76.996-33.188c-11.761-5.069-25.355.876-29.618 12.953-2.561 7.255-1.168 15.319 3.677 21.295 13.707 16.905 17.192 39.904 9.109 60.111l-38.68 96.699c-1.472 3.68-2.228 7.607-2.228 11.571z" fill="url(#SVGID_2_)"/><path d="m255.75 205c-20.678 0-37.5 16.822-37.5 37.5s16.822 37.5 37.5 37.5 37.5-16.822 37.5-37.5-16.822-37.5-37.5-37.5zm0 60c-12.407 0-22.5-10.094-22.5-22.5s10.093-22.5 22.5-22.5 22.5 10.094 22.5 22.5-10.093 22.5-22.5 22.5zm188.735 232.144-38.68-96.699c-7.066-17.667-4.012-37.823 7.971-52.603 6.442-7.943 8.329-18.87 4.925-28.515-2.72-7.708-8.576-14.007-16.065-17.282s-16.089-3.296-23.594-.062l-20.543 8.855-23.632-65.191 20.578-12.862 33.13-63.055-29.517-169.73h-50.221l-14.737 61.406 15.377 8.142-8.727 15.708 9.735 12.169-13.492 7.937.825 14.025-17.461.873-16.018 45.228c-2.822-.313-5.685-.488-8.589-.488-2.866 0-5.739.16-8.592.478l-16.016-45.218-17.461-.873.825-14.025-13.492-7.937 9.735-12.169-8.727-15.708 15.377-8.142-14.736-61.406h-50.221l-29.518 169.729 33.13 63.055 20.578 12.862-23.632 65.191-20.542-8.854c-7.505-3.233-16.105-3.213-23.594.062s-13.345 9.574-16.065 17.282c-3.404 9.645-1.517 20.571 4.924 28.515 11.983 14.779 15.038 34.936 7.972 52.603l-38.68 96.699c-1.834 4.587-2.765 9.417-2.765 14.356h15c0-3.022.569-5.979 1.692-8.786l38.68-96.699c9.084-22.71 5.158-48.621-10.248-67.62-3.179-3.921-4.111-9.314-2.431-14.075 1.363-3.861 4.179-6.891 7.93-8.531 3.752-1.64 7.888-1.651 11.647-.03l76.997 33.188c6.05 2.607 9.044 9.507 6.814 15.708l-2.399 6.673c-15.326 42.625-33.245 84.842-53.26 125.477-2.239 4.547-3.422 9.629-3.422 14.696h15c0-2.782.65-5.572 1.879-8.069 20.262-41.139 38.403-83.877 53.918-127.028l2.399-6.674c3.578-9.951 1.036-20.716-5.766-28.042l9.387-26.819c8.603 3.302 17.931 5.132 27.682 5.132 9.463 0 18.891-1.755 27.685-5.117l9.384 26.804c-6.802 7.326-9.344 18.091-5.766 28.041l2.399 6.675c15.516 43.151 33.656 85.891 53.918 127.027 1.229 2.497 1.879 5.287 1.879 8.069h15c0-5.068-1.184-10.15-3.423-14.696-20.014-40.637-37.933-82.853-53.259-125.476l-2.399-6.674c-2.229-6.201.764-13.101 6.815-15.708l76.996-33.188c3.76-1.621 7.896-1.609 11.647.03 3.751 1.641 6.567 4.67 7.93 8.531 1.68 4.761.749 10.154-2.431 14.075-15.405 18.999-19.331 44.91-10.247 67.62l38.679 96.699c1.123 2.808 1.692 5.764 1.692 8.786h15c.002-4.938-.928-9.769-2.763-14.355zm-153.342-362.404 22.539-1.127-1.175-19.975 20.508-12.063-14.265-17.831 11.273-20.292-18.623-9.858 9.263-38.594h25.779l26.482 152.271-28.87 54.945-11.874 7.421c-4.839-28.846-25.674-52.331-53.037-61.016zm-85.499 198.789-38.844-16.744 16.743-46.188c6.078 15.565 17.04 28.695 31.003 37.498zm78.725-35.478c-8.897 4.611-18.525 6.949-28.619 6.949-34.462 0-62.5-28.037-62.5-62.5v-4.157l-25.804-16.127-28.87-54.945 26.482-152.271h25.779l9.263 38.594-18.623 9.858 11.273 20.292-14.265 17.831 20.508 12.063-1.175 19.975 22.539 1.127 16.897 47.705 6.36-1.258c3.985-.788 8.067-1.188 12.135-1.188 34.462 0 62.5 28.037 62.5 62.5v1.317l26.451 72.968-38.846 16.744-13.813-39.455z" fill="url(#SVGID_3_)"/></g></svg>