<svg id="Capa_1" enable-background="new 0 0 511 511" height="512" viewBox="0 0 511 511" width="512" xmlns="http://www.w3.org/2000/svg" xmlns:xlink="http://www.w3.org/1999/xlink"><linearGradient id="SVGID_1_" gradientUnits="userSpaceOnUse" x1="255.5" x2="255.5" y1="113.5" y2="503.5"><stop offset=".00000036422" stop-color="#a8abff"/><stop offset="1" stop-color="#fac8ff"/></linearGradient><linearGradient id="SVGID_2_" gradientUnits="userSpaceOnUse" x1="255.5" x2="255.5" y1="0" y2="511"><stop offset=".00000011981" stop-color="#174fa3"/><stop offset="1" stop-color="#b044af"/></linearGradient><g id="Filled_7_"><path d="m335.5 193.5v-60c0-11.046-8.954-20-20-20h-120c-11.046 0-20 8.954-20 20v60c0 22.091-17.909 40-40 40h-20v255c0 8.284 6.716 15 15 15h250c8.284 0 15-6.716 15-15v-255h-20c-22.091 0-40-17.909-40-40z" fill="url(#SVGID_1_)"/><g fill="#fff"><path d="m320.5 409.5h-130c-8.284 0-15-6.716-15-15v-85h160v85c0 8.284-6.716 15-15 15z"/><path d="m230.5 309.5h-30v-35c0-8.284 6.716-15 15-15 8.284 0 15 6.716 15 15z"/><path d="m310.5 309.5h-30v-35c0-8.284 6.716-15 15-15 8.284 0 15 6.716 15 15z"/></g><path d="m190.5 417h130c12.406 0 22.5-10.093 22.5-22.5v-92.5h-25v-27.5c0-12.407-10.094-22.5-22.5-22.5s-22.5 10.093-22.5 22.5v27.5h-35v-27.5c0-12.407-10.093-22.5-22.5-22.5s-22.5 10.093-22.5 22.5v27.5h-25v92.5c0 12.407 10.093 22.5 22.5 22.5zm130-15h-130c-4.136 0-7.5-3.364-7.5-7.5v-7.5h145v7.5c0 4.136-3.364 7.5-7.5 7.5zm-32.5-127.5c0-4.136 3.364-7.5 7.5-7.5s7.5 3.364 7.5 7.5v27.5h-15zm-80 0c0-4.136 3.364-7.5 7.5-7.5s7.5 3.364 7.5 7.5v27.5h-15zm120 42.5v55h-145v-55zm-50-166h-15v-15h15zm30 0h-15v-15h15zm-60 0h-15v-15h15zm-30 0h-15v-15h15zm243.312 105c-6.224 0-11.728-3.967-13.696-9.872-4.014-12.039-15.237-20.128-27.928-20.128h-44.188c-17.921 0-32.5-14.58-32.5-32.5v-60c0-15.164-12.337-27.5-27.5-27.5h-2.5v-48.5c0-31.706-25.794-57.5-57.5-57.5s-57.5 25.794-57.5 57.5v48.5h-2.5c-15.164 0-27.5 12.336-27.5 27.5v60c0 17.92-14.58 32.5-32.5 32.5h-44.188c-12.691 0-23.914 8.089-27.927 20.128-1.968 5.905-7.472 9.872-13.697 9.872h-34.188v15h34.188c12.691 0 23.914-8.089 27.927-20.128 1.968-5.904 7.472-9.872 13.696-9.872h16.689v247.5c0 12.407 10.093 22.5 22.5 22.5h250c12.406 0 22.5-10.093 22.5-22.5v-247.5h16.688c6.224 0 11.728 3.967 13.696 9.872 4.014 12.039 15.237 20.128 27.928 20.128h34.188v-15zm-248.312-198.5c0-23.435 19.065-42.5 42.5-42.5s42.5 19.065 42.5 42.5v48.5h-85zm-77.5 183.5c26.191 0 47.5-21.309 47.5-47.5v-60c0-6.893 5.607-12.5 12.5-12.5h120c6.893 0 12.5 5.607 12.5 12.5v60c0 26.191 21.309 47.5 47.5 47.5h12.5v225h-265v-225zm245 255h-250c-4.136 0-7.5-3.364-7.5-7.5v-7.5h265v7.5c0 4.136-3.364 7.5-7.5 7.5z" fill="url(#SVGID_2_)"/></g></svg>