<svg id="Capa_1" enable-background="new 0 0 511.003 511.003" height="512" viewBox="0 0 511.003 511.003" width="512" xmlns="http://www.w3.org/2000/svg" xmlns:xlink="http://www.w3.org/1999/xlink"><linearGradient id="SVGID_1_" gradientUnits="userSpaceOnUse" x1="177.5" x2="177.5" y1="75.501" y2="435.501"><stop offset=".00000083866" stop-color="#96d1f3"/><stop offset="1" stop-color="#ccfff4"/></linearGradient><linearGradient id="SVGID_2_" gradientUnits="userSpaceOnUse" x1="255.501" x2="255.501" y1=".001" y2="511.001"><stop offset=".00000011981" stop-color="#174fa3"/><stop offset="1" stop-color="#b044af"/></linearGradient><g id="Filled_44_"><g fill="#fff"><path d="m347.5 503.501h-340v-8c0-33.137 26.863-60 60-60h220c33.137 0 60 26.863 60 60z"/><path d="m287.5 75.501h-220c-33.137 0-60-26.863-60-60v-8h340v8c0 33.137-26.863 60-60 60z"/><path d="m437.5 401.501c-16.569 0-30-13.431-30-30 0-26.65 1.328-53.284 3.98-79.801l25.02-250.199h2l25.02 250.199c2.652 26.518 3.98 53.151 3.98 79.801 0 16.569-13.431 30-30 30z"/></g><path d="m317.5 95.501c0-11.046-8.954-20-20-20h-240c-11.046 0-20 8.954-20 20 0 11.046 8.954 20 20 20-11.046 0-20 8.954-20 20 0 11.046 8.954 20 20 20-11.046 0-20 8.954-20 20 0 11.046 8.954 20 20 20-11.046 0-20 8.954-20 20 0 11.046 8.954 20 20 20-11.046 0-20 8.954-20 20 0 11.046 8.954 20 20 20-11.046 0-20 8.954-20 20 0 11.046 8.954 20 20 20-11.046 0-20 8.954-20 20 0 11.046 8.954 20 20 20-11.046 0-20 8.954-20 20 0 11.046 8.954 20 20 20-11.046 0-20 8.954-20 20 0 11.046 8.954 20 20 20h240c11.046 0 20-8.954 20-20 0-11.046-8.954-20-20-20 11.046 0 20-8.954 20-20 0-11.046-8.954-20-20-20 11.046 0 20-8.954 20-20 0-11.046-8.954-20-20-20 11.046 0 20-8.954 20-20 0-11.046-8.954-20-20-20 11.046 0 20-8.954 20-20 0-11.046-8.954-20-20-20 11.046 0 20-8.954 20-20 0-11.046-8.954-20-20-20 11.046 0 20-8.954 20-20 0-11.046-8.954-20-20-20 11.046 0 20-8.954 20-20 0-11.046-8.954-20-20-20 11.046 0 20-8.954 20-20z" fill="url(#SVGID_1_)"/><path d="m497.801 356.732c-6.109-6.264-13.906-10.037-23.238-11.275-.589-18.217-1.776-36.462-3.58-54.504l-25.696-256.952h-15.574l-25.695 256.952c-2.133 21.326-3.409 42.935-3.841 64.446-7.075 4.39-13.017 9.622-18.637 14.578-11.577 10.208-21.575 19.024-39.04 19.024-5.854 0-13.127-4.005-18.177-7.457.438-1.946.677-3.967.677-6.043 0-7.875-3.333-14.982-8.655-20 5.323-5.018 8.655-12.125 8.655-20s-3.333-14.982-8.655-20c5.323-5.018 8.655-12.125 8.655-20s-3.333-14.982-8.655-20c5.323-5.018 8.655-12.125 8.655-20s-3.333-14.982-8.655-20c5.323-5.018 8.655-12.125 8.655-20s-3.333-14.982-8.655-20c5.323-5.018 8.655-12.125 8.655-20s-3.333-14.982-8.655-20c5.323-5.018 8.655-12.125 8.655-20s-3.333-14.982-8.655-20c5.323-5.018 8.655-12.125 8.655-20 0-7.525-3.041-14.353-7.956-19.323 22.452-10.976 37.956-34.047 37.956-60.677v-15.5h-355v15.5c0 26.629 15.504 49.7 37.956 60.677-4.915 4.971-7.956 11.798-7.956 19.323 0 7.875 3.333 14.982 8.655 20-5.323 5.018-8.655 12.125-8.655 20s3.333 14.982 8.655 20c-5.323 5.018-8.655 12.125-8.655 20s3.333 14.982 8.655 20c-5.323 5.018-8.655 12.125-8.655 20s3.333 14.982 8.655 20c-5.323 5.018-8.655 12.125-8.655 20s3.333 14.982 8.655 20c-5.323 5.018-8.655 12.125-8.655 20s3.333 14.982 8.655 20c-5.323 5.018-8.655 12.125-8.655 20s3.333 14.982 8.655 20c-5.323 5.018-8.655 12.125-8.655 20s3.333 14.982 8.655 20c-5.323 5.018-8.655 12.125-8.655 20 0 7.525 3.041 14.353 7.956 19.323-22.452 10.977-37.956 34.048-37.956 60.677v15.5h355v-15.5c0-26.629-15.504-49.7-37.956-60.677 4.915-4.971 7.956-11.798 7.956-19.323 0-7.875-3.333-14.982-8.655-20 .254-.239.504-.48.749-.729 6.41 4.223 15.99 9.229 25.406 9.229 23.134 0 36.264-11.577 48.961-22.773 2.865-2.526 5.694-5.018 8.622-7.359 1.227 19.578 17.536 35.132 37.417 35.132 20.678 0 37.5-16.822 37.5-37.5 0-3.589-.028-7.184-.077-10.782 4.873 1.024 8.863 3.151 12.082 6.427 9.173 9.338 9 25.035 8.997 25.193l7.498.161 7.498.188c.022-.892.39-22.025-13.197-35.956zm-482.801-341.231v-.5h325v.5c0 28.948-23.552 52.5-52.5 52.5h-220c-28.948 0-52.5-23.551-52.5-52.5zm30 80c0-6.893 5.607-12.5 12.5-12.5h240c6.893 0 12.5 5.607 12.5 12.5s-5.607 12.5-12.5 12.5h-240c-6.893 0-12.5-5.607-12.5-12.5zm0 40c0-6.893 5.607-12.5 12.5-12.5h240c6.893 0 12.5 5.607 12.5 12.5s-5.607 12.5-12.5 12.5h-240c-6.893 0-12.5-5.607-12.5-12.5zm0 40c0-6.893 5.607-12.5 12.5-12.5h240c6.893 0 12.5 5.607 12.5 12.5s-5.607 12.5-12.5 12.5h-240c-6.893 0-12.5-5.607-12.5-12.5zm0 40c0-6.893 5.607-12.5 12.5-12.5h240c6.893 0 12.5 5.607 12.5 12.5s-5.607 12.5-12.5 12.5h-240c-6.893 0-12.5-5.607-12.5-12.5zm0 40c0-6.893 5.607-12.5 12.5-12.5h240c6.893 0 12.5 5.607 12.5 12.5s-5.607 12.5-12.5 12.5h-240c-6.893 0-12.5-5.607-12.5-12.5zm0 40c0-6.893 5.607-12.5 12.5-12.5h240c6.893 0 12.5 5.607 12.5 12.5s-5.607 12.5-12.5 12.5h-240c-6.893 0-12.5-5.607-12.5-12.5zm0 40c0-6.893 5.607-12.5 12.5-12.5h240c6.893 0 12.5 5.607 12.5 12.5s-5.607 12.5-12.5 12.5h-240c-6.893 0-12.5-5.607-12.5-12.5zm295 160v.5h-325v-.5c0-28.948 23.552-52.5 52.5-52.5h220c28.948 0 52.5 23.552 52.5 52.5zm-30-80c0 6.893-5.607 12.5-12.5 12.5h-240c-6.893 0-12.5-5.607-12.5-12.5s5.607-12.5 12.5-12.5h240c6.893 0 12.5 5.608 12.5 12.5zm-252.5-27.5c-6.893 0-12.5-5.607-12.5-12.5s5.607-12.5 12.5-12.5h240c6.893 0 12.5 5.607 12.5 12.5s-5.607 12.5-12.5 12.5zm380 6c-12.406 0-22.5-10.094-22.5-22.5 0-2.34.023-4.685.044-7.029 4.421-1.946 9.322-3.365 14.956-4.036v15.065h15v-46h-15v15.843c-5.367.502-10.212 1.54-14.645 2.965.548-18.666 1.739-37.374 3.588-55.864l18.557-185.569 18.557 185.569c2.616 26.161 3.943 52.759 3.943 79.056 0 12.407-10.094 22.5-22.5 22.5z" fill="url(#SVGID_2_)"/></g></svg>