<svg id="Capa_1" enable-background="new 0 0 511.679 511.679" height="512" viewBox="0 0 511.679 511.679" width="512" xmlns="http://www.w3.org/2000/svg" xmlns:xlink="http://www.w3.org/1999/xlink"><linearGradient id="SVGID_1_" gradientUnits="userSpaceOnUse" x1="255.839" x2="255.839" y1="224.179" y2="474.179"><stop offset=".00000036422" stop-color="#a8abff"/><stop offset="1" stop-color="#fac8ff"/></linearGradient><linearGradient id="SVGID_2_" gradientUnits="userSpaceOnUse" x1="255.839" x2="255.839" y1="265.179" y2="375.179"><stop offset=".00000083866" stop-color="#96d1f3"/><stop offset="1" stop-color="#ccfff4"/></linearGradient><linearGradient id="SVGID_3_" gradientUnits="userSpaceOnUse" x1="255.839" x2="255.839" y1="0" y2="511.679"><stop offset=".00000011981" stop-color="#174fa3"/><stop offset="1" stop-color="#b044af"/></linearGradient><g id="Filled_29_"><g fill="#fff"><path d="m145.839 344.179h-100c-11.046 0-20 8.954-20 20v120c0 11.046 8.954 20 20 20h100c11.046 0 20-8.954 20-20v-120c0-11.046-8.954-20-20-20z"/><path d="m45.839 304.179h100v40h-100z"/><path d="m120.839 304.179h-50l22-90h6z"/><path d="m465.839 284.179h-100c-11.046 0-20 8.954-20 20v180c0 11.046 8.954 20 20 20h100c11.046 0 20-8.954 20-20v-180c0-11.046-8.954-20-20-20z"/><path d="m365.839 244.179h100v40h-100z"/><path d="m440.839 244.179h-50l22-90h6z"/><path d="m335.839 194.179h-160c-16.569 0-30 13.431-30 30v250c0 16.569 13.431 30 30 30h160c16.569 0 30-13.431 30-30v-250c0-16.569-13.431-30-30-30z"/><path d="m185.839 124.179h140v40h-140z"/></g><path d="m175.839 454.179v-210c0-11.046 8.954-20 20-20h120c11.046 0 20 8.954 20 20v210c0 11.046-8.954 20-20 20h-120c-11.045 0-20-8.955-20-20z" fill="url(#SVGID_1_)"/><path d="m200.839 164.179h110v30h-110z" fill="#fff"/><path d="m220.839 124.179 9.179-81.079c1.746-15.419 11.59-28.733 25.821-34.921 14.231 6.187 24.076 19.501 25.821 34.921l9.179 81.079z" fill="#fff"/><path d="m255.839 265.179-33.765 51.261c-16.795 25.497 2.314 58.739 33.765 58.739 31.452 0 50.56-33.242 33.765-58.739z" fill="url(#SVGID_2_)"/><path d="m473.339 277.727v-41.048h-26.613l-22-90h-17.775l-22 90h-11.613v-12.5c0-20.678-16.822-37.5-37.5-37.5h-17.5v-15h15v-55h-35.801l-8.425-74.423c-2.041-18.028-13.646-33.721-30.283-40.955l-2.99-1.301-2.99 1.301c-16.638 7.234-28.242 22.927-30.283 40.955l-8.425 74.423h-35.801v55h15v15h-17.5c-20.678 0-37.5 16.822-37.5 37.5v72.5h-11.613l-22-90h-17.775l-22 90h-26.613v41.048c-11.528 3.274-20 13.889-20 26.452v120c0 15.163 12.337 27.5 27.5 27.5h100c4.871 0 9.605-1.295 13.76-3.702 4.916 2.372 10.426 3.702 16.24 3.702h160c5.814 0 11.323-1.33 16.24-3.702 4.155 2.407 8.889 3.702 13.76 3.702h100c15.163 0 27.5-12.337 27.5-27.5v-180c0-12.563-8.472-23.178-20-26.452zm-57.5-104.236 15.446 63.188h-30.892zm42.5 78.188v25h-85v-25zm-140-95h-20v-25h20zm-90 0v-25h20v25zm35-25h20v25h-20zm-25.869-87.736c1.314-11.604 8.247-21.839 18.369-27.417 10.122 5.578 17.055 15.812 18.369 27.417l8.234 72.735h-53.207zm-44.131 87.736h20v25h-20zm15 40h95v15h-95zm-112.5 61.812 15.446 63.188h-30.892zm42.5 78.188v25h-85v-25zm-92.5 185c-6.893 0-12.5-5.607-12.5-12.5v-120c0-6.893 5.607-12.5 12.5-12.5h92.5v122.5c0 8.435 2.801 16.227 7.52 22.499-.007 0-.013.001-.02.001zm130 0c-12.406 0-22.5-10.094-22.5-22.5v-250c0-12.406 10.094-22.5 22.5-22.5h160c12.406 0 22.5 10.094 22.5 22.5v250c0 12.406-10.094 22.5-22.5 22.5zm302.5-12.5c0 6.893-5.607 12.5-12.5 12.5h-100c-.007 0-.013-.001-.02-.001 4.719-6.272 7.52-14.064 7.52-22.499v-182.5h92.5c6.893 0 12.5 5.607 12.5 12.5zm-162.5-267.5h-120c-15.163 0-27.5 12.337-27.5 27.5v210c0 15.163 12.337 27.5 27.5 27.5h120c15.163 0 27.5-12.337 27.5-27.5v-210c0-15.163-12.337-27.5-27.5-27.5zm12.5 237.5c0 6.893-5.607 12.5-12.5 12.5h-120c-6.893 0-12.5-5.607-12.5-12.5v-210c0-6.893 5.607-12.5 12.5-12.5h120c6.893 0 12.5 5.607 12.5 12.5zm-107.5-25.5h70v15h-70zm-15-30h100v15h-100zm50-16c17.764 0 33.894-9.457 42.095-24.681 7.896-14.655 7.123-31.733-2.066-45.685l-40.028-60.77-40.028 60.77c-9.189 13.951-9.962 31.029-2.066 45.685 8.2 15.224 24.33 24.681 42.093 24.681zm-27.501-62.114 27.501-41.752 27.501 41.752c6.104 9.267 6.624 20.601 1.389 30.318-5.666 10.517-16.466 16.795-28.89 16.795s-23.224-6.278-28.89-16.795c-5.235-9.717-4.715-21.051 1.389-30.318z" fill="url(#SVGID_3_)"/></g></svg>