<svg id="Capa_1" enable-background="new 0 0 511.5 511.5" height="512" viewBox="0 0 511.5 511.5" width="512" xmlns="http://www.w3.org/2000/svg" xmlns:xlink="http://www.w3.org/1999/xlink"><linearGradient id="SVGID_1_" gradientUnits="userSpaceOnUse" x1="255.75" x2="255.75" y1="381.5" y2="511.5"><stop offset=".00000036422" stop-color="#a8abff"/><stop offset="1" stop-color="#fac8ff"/></linearGradient><linearGradient id="SVGID_2_" gradientUnits="userSpaceOnUse" x1="392.75" x2="392.75" y1="7.5" y2="167.5"><stop offset=".00000083866" stop-color="#96d1f3"/><stop offset="1" stop-color="#ccfff4"/></linearGradient><linearGradient id="SVGID_3_" gradientUnits="userSpaceOnUse" x1="255.75" x2="255.75" y1="0" y2="511.5"><stop offset=".00000011981" stop-color="#174fa3"/><stop offset="1" stop-color="#b044af"/></linearGradient><g id="Filled_41_"><g fill="#fff"><path d="m195.75 381.5v-80c0-16.569 13.431-30 30-30 16.569 0 30 13.431 30 30v80z"/><path d="m180.75 226.5c0 24.853 20.147 45 45 45s45-20.147 45-45-28.147-85-53-85c0 41-37 60.147-37 85z"/><path d="m136.75 251.5 40-140s-22-30-70-30-70 30-70 30l40 140z"/><path d="m136.75 381.5v-130s-10.286-20-30-20-30 20-30 20v130z"/></g><path d="m55.75 381.5h400v130h-400z" fill="url(#SVGID_1_)"/><path d="m310.75 481.5h-110c-13.807 0-25-11.193-25-25 0-13.807 11.193-25 25-25h110c13.807 0 25 11.193 25 25 0 13.807-11.193 25-25 25z" fill="#fff"/><path d="m302.75 167.5v130l55 30v54h70v-54l55-30v-130z" fill="#fff"/><path d="m482.75 167.5 20-160h-45l-15 30-17-30h-143l20 160z" fill="url(#SVGID_2_)"/><path d="m463.75 374h-28.5v-42.048l55-30v-133.986l20.996-167.966h-58.131l-10.778 21.558-12.216-21.558h-155.867l20.996 167.966v133.986l55 30v42.048h-87v-72.5c0-11.398-5.118-21.617-13.169-28.5 16.728-8.789 28.169-26.329 28.169-46.5 0-25.908-28.765-92.5-60.5-92.5h-7.5v7.5c0 20.621-10.427 35.013-20.511 48.931-8.479 11.704-16.489 22.759-16.489 36.069 0 20.171 11.441 37.711 28.169 46.5-8.051 6.883-13.169 17.103-13.169 28.5v72.5h-44v-121.449l40.721-142.523-2.173-2.963c-.99-1.35-24.836-33.065-76.048-33.065s-75.058 31.715-76.048 33.064l-2.173 2.963 40.721 142.524v121.449h-21.5c-26.191 0-47.5 21.309-47.5 47.5v30h15v-30c0-17.921 14.58-32.5 32.5-32.5h.5v122.5h15v-47.5h62.5v-15h-62.5v-60h385v60h-62.5v15h62.5v47.5h15v-122.5h.5c17.92 0 32.5 14.579 32.5 32.5v30h15v-30c0-26.191-21.309-47.5-47.5-47.5zm11.5-174h-165v-25h165zm-155-185v72.5h15v-72.5h20v32.5h15v-32.5h20v52.5h15v-52.5h16.129l21.784 38.442 19.222-38.442h31.869l-18.125 145h-166.758l-18.125-145zm-10 278.048v-78.048h165v78.048l-55 30v50.952h-55v-50.952zm-122-66.548c0-8.447 6.319-17.17 13.636-27.27 9.021-12.45 19.954-27.539 22.709-47.93 6.919 4.202 15.087 13.909 22.428 27.039 9.402 16.818 16.227 37.072 16.227 48.16 0 20.678-16.822 37.5-37.5 37.5s-37.5-16.821-37.5-37.499zm60 75v10.217c-5.745-4.277-13.236-7.717-22.5-7.717s-16.755 3.439-22.5 7.717v-10.217c0-12.406 10.093-22.5 22.5-22.5s22.5 10.094 22.5 22.5zm-45 32.043c2.483-3.903 10.365-14.543 22.5-14.543s20.017 10.641 22.5 14.543v40.457h-45zm-74-54.601c-5.743-4.976-13.224-8.942-22.5-8.942s-16.757 3.967-22.5 8.942v-25.429c2.445-3.903 10.225-14.513 22.5-14.513 12.141 0 20.03 10.658 22.5 14.539zm-22.5-189.942c35.595 0 55.34 17.474 61.688 24.291l-34.874 122.06c-6.097-5.783-15.021-11.351-26.814-11.351s-20.717 5.568-26.814 11.351l-34.869-122.042c6.362-6.776 26.254-24.309 61.683-24.309zm-22.5 214.204c2.2-4.321 10.227-18.204 22.5-18.204s20.3 13.883 22.5 18.204v70.796h-45zm226.5 120.796h-110c-17.92 0-32.5 14.579-32.5 32.5s14.58 32.5 32.5 32.5h110c17.92 0 32.5-14.579 32.5-32.5s-14.58-32.5-32.5-32.5zm0 50h-110c-9.649 0-17.5-7.851-17.5-17.5s7.851-17.5 17.5-17.5h110c9.649 0 17.5 7.851 17.5 17.5s-7.851 17.5-17.5 17.5z" fill="url(#SVGID_3_)"/></g></svg>